<svg xmlns="http://www.w3.org/2000/svg" width="86" height="20" viewBox="0 0 86 20">
  <g fill="#FFFFFF" fill-rule="evenodd">
    <path d="M18.7619296 3.77585041L5.64995775 16.8724683 7.51793427 16.8724683 17.4325634 6.96920325 18.8644836 8.40014309 10.3817746 16.8724683 12.3042582 16.8724683 19.8258263 9.36008455 21.2379624 10.7700553 15.1281268 16.8724683 17.0504085 16.8724683 22.1984977 11.7299967 23.6312254 13.1603317 19.9154601 16.8724683 21.7559812 16.8724683 24.5515869 14.079948 27.3482019 16.8724683 31.8757183 16.8724683 18.7619296 3.77585041zM37.5678685 19.0504325L0 19.0504325 18.7936244.286308943 37.5678685 19.0504325zM74.1542066 17.3787512C74.1542066 17.3787512 73.9058967 17.4928715 73.6969531 17.5874341 73.3503286 17.7447024 72.9025634 17.953587 72.077892 17.953587 71.4938592 17.953587 70.5052629 17.7737366 70.4465164 16.5786992L70.4465164 9.33548618 73.0907136 9.33548618 73.8368545 7.99366504 70.4465164 7.99608455 70.4424789 5.79291707 70.0843474 5.79291707C69.929507 6.07539512 69.6410235 6.46211382 69.033169 7.10772033 68.40977 7.76925528 67.1817465 8.58382439 67.0902958 8.68645203L67.0902958 9.33185691C67.1799296 9.33185691 68.2914695 9.33548618 68.2914695 9.33548618L68.2914695 16.0453984C68.2914695 18.0995642 69.2998498 19.1409626 71.2889531 19.1409626 72.71623 19.1409626 74.0011831 18.5693528 74.4364319 18.0729496L74.1542066 17.3787512M53.1433568 10.5510894C53.1431549 10.5518959 53.103385 10.6045203 52.8130845 10.6045203L47.7772394 10.6045203C47.5624413 10.6045203 47.5297371 10.5557268 47.5293333 10.5553236 47.5293333 10.5547187 47.5047042 10.5129821 47.5818216 10.3593431L50.4543427 4.18958699C50.4874507 4.12345366 50.5130892 4.08615285 50.5302488 4.06478049 50.5445822 4.08534634 50.5645681 4.12022764 50.5891972 4.17930407L53.0809765 10.2986537C53.1570845 10.4976585 53.1500188 10.541613 53.1433568 10.5510894zM58.3808779 17.3525398C57.9585493 16.7105626 57.6823803 15.9659577 57.414892 15.2463545 57.3185962 14.9868618 57.2233099 14.7305951 57.1229765 14.4827967L51.3819718.315947967 50.8467934.315947967 43.0375493 17.0168325C42.6660939 17.8307967 42.123446 18.0035902 41.7273615 18.1298081 41.5999765 18.1701333 41.5034789 18.1963447 41.3698357 18.2209431L41.3698357 19.0500293 46.2700188 19.0500293 46.2700188 18.2209431C46.1054883 18.1836423 45.9579155 18.1525919 45.8006526 18.1156943 45.2899014 17.9943154 44.7468498 17.8305951 44.7468498 16.8502894 44.7468498 16.5444228 44.8441549 16.1804878 44.9113803 16.0230179L46.5385164 12.4689561C46.7416056 12.0423154 47.0738967 12.0205398 47.5987793 12.0205398L53.1948357 12.0205398C53.7958263 12.0205398 53.9185681 12.302413 54.1630423 12.8637398L54.9877136 14.9715382C55.0464601 15.1294114 55.1195399 15.3126894 55.1980704 15.5082667 55.4514272 16.1421789 55.7669624 16.9311415 55.7669624 17.333587 55.7669624 17.7338146 55.4833239 17.9209236 55.0101221 18.0969431 54.868 18.1497691 54.7521221 18.1836423 54.6277653 18.2209431L54.6277653 19.0500293 60.2492582 19.0534569 60.2492582 18.2261854C59.9381643 18.1836423 59.8767934 18.1731577 59.7393146 18.1497691 59.2590469 18.0673041 58.7737324 17.9545951 58.3808779 17.3525398zM65.7247934 18.1483577C65.1240047 18.0261724 64.412385 17.8150699 64.412385 16.8625886L64.412385.201626016C64.412385.201626016 62.1047183 1.26359024 60.9792488 1.52651057 60.9358451 1.53538211 60.75577 1.57026341 60.75577 1.57026341L60.75577 2.27413984C60.75577 2.27413984 61.0642394 2.30337561 61.2164554 2.32454634 61.7383099 2.39753496 62.2569343 2.52153496 62.2569343 3.34961301L62.2569343 16.9180358C62.2323052 17.8207154 61.6628075 18.0160911 61.1480188 18.135252 61.0034742 18.168722 60.8514601 18.2011837 60.75577 18.2195317L60.75577 19.0494244C60.7902911 19.0504325 60.8254178 19.0502309 60.8619577 19.0502309 60.9215117 19.0502309 62.047385 19.0494244 63.1056291 19.0482146L63.1056291 19.048013C64.4018873 19.0490211 65.9357559 19.0502309 66.0106526 19.0502309 66.0522394 19.0502309 66.0930188 19.0504325 66.1321831 19.0494244L66.1321831 18.2195317C66.0227653 18.2011837 65.8905352 18.1818276 65.7247934 18.1483577M81.9626432 16.3065041C81.9626432 17.5414634 80.3139061 18.2154992 79.4666244 18.2154992 78.1275681 18.2154992 77.5308169 17.6426797 77.5308169 16.3577171 77.5308169 14.4497301 80.0139155 13.942439 81.657 13.607135 81.7623803 13.585561 81.8647324 13.5643902 81.9626432 13.544026L81.9626432 16.3065041zM85.4309061 18.1483577C84.8297136 18.0261724 84.1184977 17.8148683 84.1184977 16.8625886L84.1184977 14.5918764 84.1182958 14.5918764 84.1182958 10.5402016C84.1182958 7.97410732 80.9286244 7.77449756 79.9549671 7.77449756L79.9543615 7.77449756C79.8942019 7.77288455 79.8356573 7.77207805 79.776507 7.77207805 77.0826479 7.77207805 75.595615 9.47964878 75.5308122 10.7442472L76.9292207 11.4717138 77.2649437 11.2555707 77.2800845 11.2402472C77.2578779 11.0634211 77.2459671 10.8660293 77.2621174 10.6845659 77.2744319 10.5500813 77.2956291 10.4204358 77.3251033 10.2958309 77.5516103 9.35302764 78.283216 8.73282602 79.4922629 8.73282602 80.9698075 8.73282602 81.9626432 9.56150894 81.9626432 10.7940488L81.9626432 12.6244098C76.0748732 13.6256846 75.5788592 15.2459512 75.5788592 16.6881821 75.5788592 18.4116813 76.5264742 19.2500423 78.4752019 19.2500423 79.8247559 19.2500423 81.2112535 18.7483967 82.3092676 17.8687024 82.3094695 17.8691057 82.3096714 17.8695089 82.3100751 17.8699122L82.3100751 17.8832195 82.8282958 19.0486179 85.837892 19.0492228 85.837892 18.2195317C85.7284742 18.2009821 85.596446 18.1818276 85.4309061 18.1483577z"/>
  </g>
</svg>
