<svg xmlns="http://www.w3.org/2000/svg" width="101" height="37" viewBox="0 0 101 37">
  <g fill="#FFFFFF" fill-rule="evenodd">
    <path d="M0.111084948,17.7590295 L3.23230104,17.7111115 C3.23230104,17.7111115 16.3498077,17.5386975 16.7000715,31.387009 L16.7000715,34.2811975 L15.1891356,34.2811975 L15.191544,31.3506156 C15.191544,31.3506156 15.3354426,19.6464844 3.21453949,19.2664762 L0.0900119225,19.3207631 L0.111084948,17.7590295 Z"/>
    <path d="M3.22352563,21.2230332 L0.134671684,21.2230332 L0.134671684,22.6912053 L3.17400402,22.6902955 C3.17400402,22.6902955 11.7707447,22.604316 11.8067194,31.4320004 L11.7951292,34.3084471 L13.2791218,34.3084471 L13.2791218,31.3778652 C13.2791218,31.3778652 13.8717253,21.7176807 3.22352563,21.2230332"/>
    <path d="M0.134746945,24.1420906 L0.138208942,25.6217873 L3.20538778,25.6249717 C3.20538778,25.6249717 8.88005246,25.4985045 8.89781401,31.4320004 L8.88637437,34.3084471 L10.3702164,34.3084471 L10.3702164,31.341775 C10.3702164,31.341775 10.8550465,24.6121725 3.09761431,24.1420906 L0.134746945,24.1420906 Z"/>
    <path d="M3.18311058 26.7851189L.134746945 26.7851189.134746945 28.284377 3.15165156 28.3118238C3.15165156 28.3118238 6.22199136 28.0945246 6.30056364 31.3778197L6.30056364 34.3084016 7.75761282 34.3084016 7.75761282 31.3550738C7.75761282 31.3550738 7.86508525 26.873373 3.18311058 26.7851189M.0476551416 16.712066L.0000903129657 13.5676725C.0000903129657 13.5676725-.170902235.352758607 13.5756343.0000454918033L16.4483392.0000454918033 16.4483392 1.52204959 13.5393586 1.51962336C13.5393586 1.51962336 1.92134814 1.37450451 1.54429151 13.5857176L1.59802772 16.7334471.0476551416 16.712066z"/>
    <path d="M3.48612563,13.576498 L3.48612563,16.6882889 L4.94362638,16.6882889 L4.94257273,13.6262357 C4.94257273,13.6262357 4.8573775,4.96596107 13.620294,4.92956762 L16.4752374,4.94109221 L16.4752374,3.44623156 L13.5661063,3.44623156 C13.5661063,3.44623156 3.97712712,2.84922746 3.48612563,13.576498"/>
    <path d="M6.38374188,16.6883648 L7.85268227,16.684877 L7.85599374,13.5949221 C7.85599374,13.5949221 7.73015768,7.87811885 13.6202188,7.86007377 L16.4753127,7.87190164 L16.4753127,6.37688934 L13.5300563,6.37688934 C13.5300563,6.37688934 6.85050939,5.88815574 6.38374188,13.7034959 L6.38374188,16.6883648 Z"/>
    <path d="M9.00758942,13.6173799 L9.00758942,16.6883799 L10.4957966,16.6883799 L10.5224389,13.6493758 C10.5224389,13.6493758 10.3070425,10.5559332 13.5661364,10.4767775 L16.4752675,10.4767775 L16.4752675,9.00890861 L13.5435581,9.00890861 C13.5435581,9.00890861 9.09489195,8.90033484 9.00758942,13.6173799"/>
    <polygon points="21.236 25.942 23.344 25.942 23.344 29.242 26.172 25.948 28.791 25.948 25.634 29.322 29.002 34.267 26.383 34.267 24.206 30.841 23.344 31.755 23.344 34.267 21.236 34.267"/>
    <path d="M32.3689346 32.8025623C33.2642371 32.8025623 33.5476693 31.9116811 33.5476693 31.1575787 33.5476693 30.4037795 33.2642371 29.501677 32.3689346 29.501677 31.4731805 29.501677 31.2013385 30.4037795 31.2013385 31.1575787 31.2013385 31.9116811 31.4731805 32.8025623 32.3689346 32.8025623M32.3689346 28.016673C34.1941596 28.016673 35.475249 29.3761197 35.475249 31.1575787 35.475249 32.9391893 34.1941596 34.2874148 32.3689346 34.2874148 30.543559 34.2874148 29.2737587 32.9391893 29.2737587 31.1575787 29.2737587 29.3761197 30.543559 28.016673 32.3689346 28.016673M40.5201012 30.5598164C40.4862338 29.897759 40.0215736 29.3488246 39.3749328 29.3488246 38.6948762 29.3488246 38.241204 29.8404393 38.1278613 30.5598164L40.5201012 30.5598164zM38.1278613 31.6450992C38.1618791 32.4556115 38.6265393 32.9924148 39.442818 32.9924148 39.9079298 32.9924148 40.3614514 32.7757221 40.5425289 32.3417303L42.3454768 32.3417303C41.9938583 33.7122467 40.7351966 34.3063697 39.4203903 34.3063697 37.5045513 34.3063697 36.2002815 33.141173 36.2002815 31.1536361 36.2002815 29.3377549 37.6404723 28.0356279 39.3749328 28.0356279 41.48359 28.0356279 42.5381444 29.6343615 42.4476809 31.6450992L38.1278613 31.6450992zM45.2701417 31.1839943C45.2701417 32.2231787 45.5654651 32.8973672 46.4381894 32.8973672 47.2997751 32.8973672 47.5944964 31.9949615 47.5944964 31.1839943 47.5944964 30.4300434 47.2997751 29.596482 46.4496291 29.596482 45.9277706 29.596482 45.2701417 29.9614779 45.2701417 31.1839943zM43.4107483 28.074023L45.2475635 28.074023 45.2475635 28.9682402 45.2701417 28.9682402C45.644489 28.4082361 46.2414577 28.0267115 46.9221164 28.0267115 48.7697692 28.0267115 49.5216246 29.7102115 49.5216246 31.377941 49.5216246 32.9198098 48.7056469 34.3822197 47.0390717 34.3822197 46.3135575 34.3822197 45.7581328 34.1077525 45.3610568 33.5707975L45.338328 33.5707975 45.338328 36.1979492 43.4107483 36.1979492 43.4107483 28.074023zM53.3650885 32.8025623C54.2603911 32.8025623 54.5441243 31.9116811 54.5441243 31.1575787 54.5441243 30.4037795 54.2603911 29.501677 53.3650885 29.501677 52.4696355 29.501677 52.1971914 30.4037795 52.1971914 31.1575787 52.1971914 31.9116811 52.4696355 32.8025623 53.3650885 32.8025623M53.3650885 28.016673C55.1903136 28.016673 56.4715535 29.3761197 56.4715535 31.1575787 56.4715535 32.9391893 55.1903136 34.2874148 53.3650885 34.2874148 51.5395624 34.2874148 50.2700632 32.9391893 50.2700632 31.1575787 50.2700632 29.3761197 51.5395624 28.016673 53.3650885 28.016673M57.4806203 28.0645758L59.3508513 28.0645758 59.3508513 29.093752 59.37358 29.093752C59.725048 28.4887111 60.5185979 28.111584 61.2216844 28.111584 63.1831314 28.111584 63.3417812 29.5504898 63.3417812 30.4069488L63.3417812 34.2102152 61.4146531 34.2102152 61.4146531 31.3439283C61.4146531 30.5326578 61.504966 29.7103176 60.4505621 29.7103176 59.725048 29.7103176 59.4077484 30.3273381 59.4077484 30.9781742L59.4077484 34.2102152 57.4806203 34.2102152 57.4806203 28.0645758zM67.3316876 25.8847602L67.9546966 25.8847602 67.9546966 29.2102111 67.9805863 29.2102111C68.1622659 28.8643217 68.4609007 28.5442111 68.8241094 28.3266086 69.1874686 28.1090061 69.6157025 27.9678299 70.0829216 27.9678299 70.6669455 27.9678299 72.2502823 28.2624652 72.2502823 30.5549488L72.2502823 34.2558586 71.6272733 34.2558586 71.6272733 30.6187889C71.6272733 29.5172807 71.1857934 28.5056947 69.9141869 28.5056947 69.0318292 28.5056947 68.3051109 29.1333299 68.0325162 29.8887971 67.9676414 30.0807725 67.9546966 30.2475758 67.9546966 30.503543L67.9546966 34.2558586 67.3316876 34.2558586 67.3316876 25.8847602zM75.9093723 33.8846303C77.2071696 33.8846303 78.2322218 32.731868 78.2322218 31.1566385 78.2322218 30.0296549 77.596268 28.4800525 75.9483574 28.4800525 74.3519252 28.4800525 73.6384528 29.8761959 73.6384528 31.1953066 73.6384528 32.731868 74.6246703 33.8846303 75.8962769 33.8846303L75.9093723 33.8846303zM75.8703872 34.3965648C74.2611607 34.3965648 73.0154438 33.1544869 73.0154438 31.2336713 73.0154438 29.1333148 74.4169505 27.9678148 75.9613022 27.9678148 77.687183 27.9678148 78.8552307 29.248409 78.8552307 31.1311631 78.8552307 33.4107574 77.2590996 34.3965648 75.883332 34.3965648L75.8703872 34.3965648z"/>
    <polygon points="79.46 34.256 80.083 34.256 80.083 25.885 79.46 25.885"/>
    <path d="M85.8806914 30.5420443C85.8806914 30.3753926 85.867596 30.1577902 85.8158165 29.9785525 85.6080967 29.1587902 84.8684335 28.4800525 83.8561757 28.4800525 82.4936541 28.4800525 81.6371861 29.6457041 81.6371861 31.2336713 81.6371861 32.6166221 82.3378642 33.8846303 83.8171906 33.8846303 84.7126437 33.8846303 85.5561668 33.2953598 85.8158165 32.2837738 85.867596 32.1301631 85.8806914 31.9635115 85.8806914 31.7715361L85.8806914 30.5420443zM86.5035498 25.8847451L86.5035498 32.834073C86.5035498 33.2826221 86.5164946 33.8204869 86.5554797 34.2558434L85.9974961 34.2558434 85.9455662 33.0904951 85.9196765 33.0904951C85.5951519 33.7690811 84.8553382 34.3965648 83.7005364 34.3965648 82.1561846 34.3965648 81.0141772 33.1290115 81.0141772 31.2973598 81.0012323 29.248409 82.2859343 27.9678148 83.8171906 27.9678148 84.8943232 27.9678148 85.582207 28.5185689 85.8546511 29.0564336L85.8806914 29.0564336 85.8806914 25.8847451 86.5035498 25.8847451zM87.915006 34.2557828L88.5381654 34.2557828 88.5381654 28.1089303 87.915006 28.1089303 87.915006 34.2557828zM88.2005455 26.8795902C87.915006 26.8795902 87.720532 26.6360574 87.720532 26.3541598 87.720532 26.0725656 87.9410462 25.8162951 88.2265857 25.8162951 88.5121252 25.8162951 88.719544 26.0598279 88.719544 26.3541598 88.719544 26.6360574 88.52507 26.8795902 88.2136408 26.8795902L88.2005455 26.8795902zM89.7241402 29.5815607C89.7241402 29.0179172 89.7111954 28.59545 89.6722103 28.108991L90.2560836 28.108991 90.2952192 29.2101959 90.3211089 29.2101959C90.6585784 28.5185689 91.4501715 27.9678148 92.4624294 27.9678148 93.0593981 27.9678148 94.6425844 28.26245 94.6425844 30.5675197L94.6425844 34.2558434 94.0197259 34.2558434 94.0197259 30.6187738C94.0197259 29.4917902 93.5782461 28.4800525 92.2935441 28.4800525 91.4242818 28.4800525 90.6715232 29.09495 90.4248183 29.9016713 90.3859838 30.0425443 90.3469987 30.2475607 90.3469987 30.4396877L90.3469987 34.2558434 89.7241402 34.2558434 89.7241402 29.5815607zM100.294024 30.477916C100.294024 30.2474242 100.280928 30.0556004 100.216204 29.8762111 99.9567046 29.1462193 99.3076554 28.4800676 98.2826033 28.4800676 96.9589162 28.4800676 96.0506689 29.5432111 96.0506689 31.169543 96.0506689 32.5529488 96.790332 33.7433176 98.256563 33.7433176 99.0869908 33.7433176 99.865639 33.2313832 100.190164 32.3606701 100.255038 32.155502 100.294024 31.9250102 100.294024 31.7072561L100.294024 30.477916zM100.916882 33.3593668C100.916882 34.9345963 100.579413 35.7158422 100.060414 36.2023012 99.4894855 36.740166 98.6459624 36.932293 97.9452844 36.932293 97.2313604 36.932293 96.4399177 36.7530553 95.9596033 36.3945799L96.180268 35.9081209C96.6214468 36.1894119 97.2313604 36.420207 98.0360489 36.420207 99.3466405 36.420207 100.294024 35.754207 100.294024 33.9355963L100.294024 33.0648832 100.267983 33.0648832C99.9436092 33.6922152 99.2168909 34.2558586 98.1010742 34.2558586 96.5305317 34.2558586 95.4276599 32.9112725 95.4276599 31.2335348 95.4276599 29.0949652 96.8549058 27.9678299 98.2305228 27.9678299 99.4634453 27.9678299 100.073359 28.6338299 100.333009 29.1462193L100.358898 29.1462193 100.397883 28.1090061 100.968812 28.1090061C100.929827 28.5698381 100.916882 29.0564488 100.916882 29.697125L100.916882 33.3593668z"/>
  </g>
</svg>
