<svg xmlns="http://www.w3.org/2000/svg" width="49" height="33" viewBox="0 0 49 33">
  <g fill="#FEFEFE" fill-rule="evenodd">
    <path d="M11.431586 27.3558672C11.431586 28.1166262 11.3187721 28.8104002 11.0942837 29.4371891 10.8697953 30.063978 10.522807 30.602849 10.0533186 31.0538021 9.58383023 31.5053533 8.98842326 31.8540345 8.26766744 32.1004439 7.54577209 32.3462552 6.68485349 32.4694599 5.68491163 32.4694599 5.07241163 32.4694599 4.48384186 32.4000825 3.91920233 32.2625239 3.35456279 32.1243672 2.82695814 31.9305889 2.33695814 31.680591 1.84695814 31.4305932 1.4031093 31.1249738 1.00484186 30.7631348.607144186 30.4012957.27212093 29.9963949-.000227906977 29.5490303L2.11246977 27.4904354C2.6229814 28.1465303 3.19787674 28.616622 3.83772558 28.9001124 4.47700465 29.1836028 5.14762093 29.325348 5.84843488 29.325348 6.34470233 29.325348 6.74638837 29.2858746 7.05235349 29.2081241 7.35888837 29.1291774 7.61585349 29.0215228 7.82324884 28.8833661 8.03064419 28.7452094 8.17878372 28.5831294 8.26766744 28.3965281 8.3559814 28.2105249 8.39985349 27.9378 8.39985349 27.5795495 8.39985349 27.3259631 8.35883023 27.1004866 8.27735349 26.9031198 8.19587674 26.705155 8.0374814 26.5239365 7.80273721 26.3600623 7.56799302 26.1961881 7.23809767 26.0394908 6.81305116 25.8899706 6.38743488 25.7410484 5.82792326 25.5801646 5.13394651 25.4091134 4.45991163 25.2374642 3.84228372 25.0394994 3.28106279 24.8158171 2.71984186 24.5921348 2.23838837 24.3008693 1.83727209 23.9432168 1.43558605 23.5849663 1.12278372 23.1393959.898295349 22.6059077.673806977 22.0724194.560993023 21.4103437.560993023 20.6196806.560993023 19.8960026.697167442 19.2434962.969516279 18.6615633 1.24129535 18.0796305 1.61392326 17.5856156 2.08683023 17.1789205 2.55973721 16.7722254 3.1146907 16.4612232 3.75055116 16.2447179 4.3869814 16.0282126 5.06557442 15.9199599 5.7869 15.9199599 6.34470233 15.9199599 6.87401628 15.9743853 7.37370233 16.0820399 7.87452791 16.1902925 8.36452791 16.3673245 8.84370233 16.6137339 9.32401628 16.8601433 9.73026047 17.1209066 10.0641442 17.39722 10.3968884 17.6729354 10.7472953 18.0198224 11.1147953 18.437881L9.00209767 20.6866657C8.72291163 20.3732712 8.4784814 20.1310484 8.26766744 19.9593991 8.05628372 19.7877499 7.81470233 19.6298565 7.54235349 19.4839247 7.27057442 19.338591 6.98455116 19.2267499 6.68485349 19.1478032 6.38572558 19.0700527 6.05241163 19.0305793 5.68491163 19.0305793 5.29063256 19.0305793 4.96073721 19.0736412 4.69522558 19.1597648 4.42971395 19.2452904 4.21491163 19.3553373 4.05195814 19.4893075 3.88843488 19.6238757 3.77106279 19.7769844 3.69927209 19.9480356 3.62862093 20.1196849 3.59272558 20.2949226 3.59272558 20.4743469 3.59272558 20.7279333 3.63716744 20.9444386 3.72491163 21.1232648 3.81322558 21.302091 3.96991163 21.4611806 4.1944 21.5987392 4.41945814 21.7368959 4.72029535 21.8672776 5.09805116 21.9904823 5.47523721 22.113687 5.9566907 22.2494514 6.54241163 22.3989716 7.37256279 22.615477 8.06312093 22.8409535 8.61465581 23.0759994 9.16562093 23.3104471 9.65163256 23.6106838 10.0738302 23.9767094 10.4960279 24.3421369 10.8270628 24.8044535 11.0686442 25.3642574 11.3102256 25.9234631 11.431586 26.587333 11.431586 27.3558672M20.6664337 28.8552563C20.2277128 29.1387467 19.7092244 29.2804919 19.1103988 29.2804919 18.5594337 29.2804919 18.0694337 29.1501102 17.6403988 28.8887488 17.2119337 28.6279855 16.8489919 28.269735 16.5532826 27.8145953 16.2570035 27.3600537 16.0313756 26.822977 15.8746895 26.203365 15.7180035 25.5843512 15.6399453 24.9127062 15.6399453 24.1890281 15.6399453 23.4432211 15.7162942 22.7590164 15.8689919 22.135816 16.0228291 21.5132136 16.2473174 20.9779311 16.5430267 20.5299684 16.8393058 20.0826038 17.1993988 19.7339226 17.6250151 19.4839247 18.0500616 19.2339269 18.5389221 19.1089279 19.0898872 19.1089279 19.4499802 19.1089279 19.7633523 19.1501955 20.028864 19.2321326 20.2943756 19.3140697 20.5353872 19.4318917 20.7536081 19.5850004 20.9712593 19.7381092 21.1552942 19.899591 21.3045733 20.0712403 21.4441663 20.231526 21.5905965 20.4695623 21.7415849 20.7793682L23.90955 18.4025942C23.4696895 17.7309493 22.9460733 17.1932744 22.3358523 16.7979429 21.4304919 16.2124215 20.3621779 15.9199599 19.1309105 15.9199599 18.1782593 15.9199599 17.3036663 16.1215132 16.5071314 16.5240217 15.7111663 16.9271284 15.0274453 17.4941092 14.4559686 18.2249642 13.8844919 18.9558192 13.4389337 19.8290175 13.1187244 20.8433629 12.7985151 21.8583064 12.6389802 22.9737275 12.6389802 24.1890281 12.6389802 25.1591156 12.7221663 26.0221465 12.8891081 26.7793171 13.0554802 27.5364876 13.2514802 28.1764343 13.4765384 28.6985591 13.7010267 29.2206838 13.9995849 29.724268 14.3744919 30.2093117 14.7482593 30.6943554 15.1772942 31.104639 15.660457 31.4401625 16.14305 31.7756859 16.6586895 32.0310665 17.2068058 32.2069023 17.7543523 32.381542 18.3617244 32.4694599 19.0289221 32.4694599 19.6887128 32.4694599 20.2955151 32.3869247 20.8498988 32.2236486 21.4048523 32.0597744 21.9068174 31.820542 22.356364 31.5071475 22.8053407 31.1937531 23.2030384 30.8133736 23.5500267 30.366009 23.728364 30.1357478 23.8935965 29.8887403 24.0474337 29.6267808L21.9381547 27.3140015C21.515957 28.0651913 21.09205 28.5807371 20.6664337 28.8552563"/>
    <polygon points="39.222 16.166 39.222 32.212 45.564 32.212 48.453 29.045 42.152 29.045 42.152 16.166"/>
    <path d="M34.7709128,27.301681 C34.3452965,28.0600478 33.9196802,28.5791821 33.4923547,28.8554955 C33.053064,29.1383878 32.5340058,29.2807311 31.9351802,29.2807311 C31.3842151,29.2807311 30.8942151,29.1503495 30.46575,28.8889881 C30.0367151,28.6276267 29.6749128,28.2699742 29.3786337,27.8148345 C29.0829244,27.3596949 28.856157,26.8226181 28.7000407,26.2030062 C28.5433547,25.5839923 28.4652965,24.9129454 28.4652965,24.1892674 C28.4652965,23.4434603 28.5416453,22.7592557 28.6949128,22.1360552 C28.8476105,21.5128548 29.0720988,20.9775723 29.3683779,20.5302077 C29.6640872,20.082245 30.0253198,19.7335638 30.4503663,19.4835659 C30.8759826,19.2341661 31.3637035,19.1091672 31.9152384,19.1091672 C32.2759012,19.1091672 32.5887035,19.1504348 32.8542151,19.2323719 C33.119157,19.314309 33.3613081,19.4315328 33.5789593,19.5846416 C33.7966105,19.7377503 33.9800756,19.8998303 34.1299244,20.0714795 C34.2717965,20.2341576 34.419936,20.4757823 34.5737733,20.7921672 L36.7423081,18.414197 C36.3007384,17.7365712 35.774843,17.1953079 35.1606337,16.7981821 C34.255843,16.2126608 33.1869593,15.9201991 31.9556919,15.9201991 C31.0030407,15.9201991 30.1290174,16.1211544 29.3330523,16.524261 C28.5370872,16.9267695 27.8527965,17.4943484 27.2813198,18.2252034 C26.7092733,18.9560584 26.2637151,19.8286586 25.9440756,20.8436021 C25.624436,21.8579475 25.4643314,22.9733687 25.4643314,24.1892674 C25.4643314,25.1587567 25.5480872,26.0223857 25.7144593,26.7795563 C25.8808314,27.5367269 26.0768314,28.1760755 26.3013198,28.6987983 C26.5258081,29.220923 26.8255058,29.7245072 27.1992733,30.2089529 C27.5736105,30.6945947 28.0020756,31.1042802 28.4852384,31.4398036 C28.9689709,31.7759252 29.4840407,32.0313058 30.0315872,32.2065435 C30.5797035,32.3817812 31.1865058,32.4696991 31.8537035,32.4696991 C32.5134942,32.4696991 33.121436,32.387164 33.6758198,32.2232898 C34.2302035,32.0594156 34.7321686,31.8207812 35.1811453,31.5073868 C35.6301221,31.1939923 36.0283895,30.8136128 36.3759477,30.3656501 C36.556564,30.1318004 36.7246453,29.8806064 36.8801919,29.6138623 L34.7709128,27.301681 Z"/>
    <polygon points="27.666 5.675 22.109 11.768 22.856 11.768 27.521 6.655"/>
    <polygon points="33.481 11.769 33.606 11.769 33.53 11.713"/>
    <polygon points="32.566 9.654 30.637 11.768 31.385 11.768 32.423 10.63"/>
    <polygon points="32.059 11.768 32.806 11.768 33.123 11.421 32.671 11.097"/>
    <polygon points="27.39 7.538 23.53 11.768 24.278 11.768 27.243 8.518"/>
    <path d="M15.5801767 10.985313C15.4633744 11.0696424 14.6326535 11.6659292 14.4890721 11.7682011L21.4356767 11.7682011 27.7982698 4.79278209 28.0837233 2.86935352 26.3635953 3.13490149C26.3635953 3.13490149 26.1647465 3.17317868 26.0325605 3.02963923 25.901514 2.88490362 24.1369442.597841791 24.1369442.597841791L22.1513047 3.09662431C22.1513047 3.09662431 22.0869209 3.22880021 21.8692698 3.19530768 21.6521884 3.16181514 20.021514 2.91121919 20.021514 2.91121919L21.1274326 9.24310299 21.0938163 9.2742032 18.3378512 6.50807846 17.7338977 7.80651237C17.7338977 7.80651237 17.694014 7.92134392 17.5293512 7.92134392 17.3646884 7.92134392 15.2759209 7.90579382 15.2759209 7.90579382L15.6810256 10.6916552C15.6810256 10.6916552 15.7078047 10.8938066 15.5801767 10.985313M25.6987337 11.7682609L30.0067453 7.04521503C29.8751291 6.76112655 29.7571872 6.50813827 29.7571872 6.50813827L29.6779895 6.58708497 24.9511988 11.7682609 25.6987337 11.7682609z"/>
    <polygon points="28.543 11.768 32.121 7.844 31.328 7.894 27.794 11.768"/>
    <polygon points="29.963 11.768 32.694 8.775 32.835 7.799 29.216 11.768"/>
    <path d="M27.1217279,11.7682609 L30.6155419,7.93815 C30.6144023,7.93815 30.4366349,7.97044638 30.360286,7.80657217 C30.3420535,7.76530458 30.294193,7.66422889 30.2337977,7.53504339 L26.3724837,11.7682609 L27.1217279,11.7682609 Z"/>
  </g>
</svg>
